<svg width="60" height="60" viewBox="0 0 60 60" fill="none" xmlns="http://www.w3.org/2000/svg">
<rect width="60" height="60" rx="10" fill="black"/>
<path d="M22.5 52C26.64 52 30 48.64 30 44.5V37H22.5C18.36 37 15 40.36 15 44.5C15 48.64 18.36 52 22.5 52Z" fill="#0ACF83"/>
<path d="M15 29.5C15 25.36 18.36 22 22.5 22H30V37H22.5C18.36 37 15 33.64 15 29.5Z" fill="#A259FF"/>
<path d="M15 14.5C15 10.36 18.36 7 22.5 7H30V22H22.5C18.36 22 15 18.64 15 14.5Z" fill="#F24E1E"/>
<path d="M30 7H37.5C41.64 7 45 10.36 45 14.5C45 18.64 41.64 22 37.5 22H30V7Z" fill="#FF7262"/>
<path d="M45 29.5C45 33.64 41.64 37 37.5 37C33.36 37 30 33.64 30 29.5C30 25.36 33.36 22 37.5 22C41.64 22 45 25.36 45 29.5Z" fill="#1ABCFE"/>
</svg>
