<svg width="55" height="55" viewBox="0 0 55 55" fill="none" xmlns="http://www.w3.org/2000/svg">
<path d="M27.4686 55C12.111 54.7049 0.107387 42.1157 0 27.4686C0.298604 12.1225 12.8209 0.107387 27.4686 0C42.8155 0.306808 54.8925 12.8012 55 27.4686C54.6966 42.8269 42.1354 54.8925 27.4686 55ZM27.4686 1.94856C13.209 2.22933 1.9849 13.8523 1.88572 27.4686C2.16306 41.7395 13.8529 52.9522 27.4686 53.0514C41.7395 52.774 52.9522 41.0842 53.0514 27.4686C52.7823 13.1985 41.0646 2.04765 27.4686 1.94856ZM20.8686 49.9714L27.9086 29.7314L35.2628 49.5314C30.3082 51.1901 25.624 51.2906 20.8686 49.9714ZM15.4628 14.2057C12.8856 14.5561 10.3792 14.681 7.92 14.5829C12.5894 7.90721 20.0657 4.15154 27.4686 4.08572C33.5236 4.2003 39.1684 6.48913 43.3086 10.2457C41.3885 10.1038 40.2388 10.9459 39.4114 12.3828C38.2091 16.0925 40.7498 18.8386 42.1772 21.6229C43.5267 24.1669 43.4197 27.0595 42.68 29.5429L39.16 41.5486L30.6743 16.3428C31.5585 16.2606 32.4484 16.2341 33.2515 16.0914C34.2019 15.8798 34.4104 14.9953 33.7543 14.4571C33.5449 14.2896 33.3143 14.2058 33.0629 14.2058L27.9715 14.5829H24.1058C23.0143 14.6474 19.9325 13.5931 19.6742 15.023C19.5408 15.5738 19.952 16.0055 20.4285 16.0915C21.2694 16.2004 22.2327 16.3241 23.0057 16.4058L26.7142 26.3372L21.56 41.5486L13.0114 16.3428C13.916 16.2643 14.8325 16.2369 15.6514 16.0914C16.322 16.0074 16.6152 15.6722 16.5314 15.0857C16.4126 14.5642 15.9478 14.2119 15.4628 14.2057ZM6.03428 18.1029L17.2857 48.5257C13.2259 46.5247 10.0163 43.582 7.7314 40.0714C3.55162 33.4012 3.11195 24.9389 6.03428 18.1029ZM50.0029 33.7228C48.1557 39.7549 44.383 44.7509 39.1601 47.7714C39.4114 47.1009 39.8096 45.9696 40.3544 44.3771L46.8915 25.3942C47.5201 23.5504 47.9601 21.4971 48.2115 19.2343C48.2965 18.3085 48.2993 17.3751 48.1487 16.5314C50.8271 22.3084 51.5869 28.0306 50.0029 33.7228Z" fill="black"/>
</svg>
