<svg width="41" height="48" viewBox="0 0 41 48" fill="none" xmlns="http://www.w3.org/2000/svg">
<path d="M0.46875 0.625H18.0938C20.2604 0.625 22.3229 0.90625 24.2812 1.46875C26.2396 2.03125 28.0625 2.82292 29.75 3.84375C31.4375 4.86458 32.9688 6.09375 34.3438 7.53125C35.7188 8.94792 36.8854 10.5312 37.8438 12.2812C38.8229 14.0312 39.5729 15.9167 40.0938 17.9375C40.6146 19.9375 40.875 22.0208 40.875 24.1875C40.875 26.3958 40.6146 28.5104 40.0938 30.5312C39.5729 32.5521 38.8229 34.4479 37.8438 36.2188C36.8854 37.9896 35.7188 39.6042 34.3438 41.0625C32.9688 42.5 31.4375 43.7396 29.75 44.7812C28.0625 45.8021 26.2396 46.5938 24.2812 47.1562C22.3229 47.7188 20.2604 48 18.0938 48H0.46875V42.625H4.96875V6.03125H0.46875V0.625ZM11.0938 6.03125V42.625H18.4688C20.6562 42.625 22.7083 42.1458 24.625 41.1875C26.5625 40.2292 28.25 38.9271 29.6875 37.2812C31.125 35.6146 32.2604 33.6667 33.0938 31.4375C33.9271 29.1875 34.3438 26.7708 34.3438 24.1875C34.3438 21.6458 33.9271 19.2708 33.0938 17.0625C32.2604 14.8542 31.125 12.9375 29.6875 11.3125C28.25 9.66667 26.5625 8.375 24.625 7.4375C22.7083 6.5 20.6562 6.03125 18.4688 6.03125H11.0938Z" fill="#F2F2F2"/>
</svg>
