<svg width="50" height="50" viewBox="0 0 50 50" fill="none" xmlns="http://www.w3.org/2000/svg">
<path d="M33.8166 50.0001C36.2609 49.9984 38.419 48.4039 39.138 46.0673L42.5459 35.0002C44.0583 30.0845 44.8278 24.9706 44.8278 19.8277C44.8278 16.0187 41.7402 12.9312 37.9311 12.9312H36.2071C32.398 12.9312 29.3105 16.0187 29.3105 19.8277V45.494C29.3105 47.9826 31.328 50.0001 33.8166 50.0001Z" fill="#D43D3D"/>
<path d="M28.2326 2.55019C27.4114 4.76387 27.0806 7.12908 27.2628 9.48294H28.4481C30.3525 9.48294 31.8964 11.0269 31.8964 12.9312V14.6554H18.9653V12.9312C18.9653 11.0269 20.5094 9.48294 22.4137 9.48294C22.3257 6.2767 23.3826 3.14453 25.3947 0.646729L28.2326 2.55019Z" fill="#5F9548"/>
<path d="M16.1835 50.0001C13.7391 49.9984 11.5811 48.4039 10.8621 46.0673L7.45423 35.0002C5.94183 30.0845 5.17236 24.9706 5.17236 19.8277C5.17236 16.0187 8.2599 12.9312 12.0689 12.9312H13.7931C17.6021 12.9312 20.6896 16.0187 20.6896 19.8277V45.494C20.6896 47.9826 18.6721 50.0001 16.1835 50.0001Z" fill="#D43D3D"/>
<path d="M15.5171 18.1035V21.2483C15.5171 25.4677 15.8395 29.6808 16.481 33.851L17.9669 45.5062C18.3549 48.0297 20.5266 49.8927 23.0799 49.8923H26.2698C28.8232 49.8927 30.9944 48.0297 31.3824 45.5062L33.5153 33.851C34.158 29.6808 34.4814 25.4677 34.4826 21.2483V18.1035C34.4826 15.2471 32.1666 12.9312 29.3102 12.9312H20.6895C17.833 12.9312 15.5171 15.2471 15.5171 18.1035Z" fill="#E94F4F"/>
<path d="M17.6172 42.7586L17.9671 45.5078C18.3552 48.0312 20.5267 49.8943 23.08 49.8939H26.2699C28.8233 49.8943 30.9944 48.0312 31.3825 45.5078L33.5154 33.8526C34.1578 29.6845 34.481 25.474 34.4827 21.2571C31.8523 30.3353 25.8077 38.0412 17.6172 42.7586Z" fill="#E04646"/>
<path d="M18.1035 20.6897H19.8277V22.5216H18.1035V20.6897Z" fill="#F26666"/>
<path d="M19.1382 34.3357L18.6554 30.9597C18.3153 28.7591 18.1309 26.537 18.1035 24.3107L19.8277 24.2917C19.8521 26.4407 20.028 28.5853 20.3542 30.7097L20.8396 34.094L19.1382 34.3357Z" fill="#F26666"/>
<path d="M28.4483 1.72414C28.4483 2.67629 27.6763 3.44827 26.7242 3.44827C25.772 3.44827 25 2.67629 25 1.72414C25 0.771989 25.772 0 26.7242 0C27.6763 0 28.4483 0.771989 28.4483 1.72414Z" fill="#77AD50"/>
</svg>
