<svg width="178" height="79" viewBox="0 0 178 79" fill="none" xmlns="http://www.w3.org/2000/svg">
<path d="M72.8166 62.0001C75.2609 61.9984 77.419 60.4039 78.138 58.0673L81.5459 47.0002C83.0583 42.0845 83.8278 36.9706 83.8278 31.8277C83.8278 28.0187 80.7402 24.9312 76.9311 24.9312H75.2071C71.398 24.9312 68.3105 28.0187 68.3105 31.8277V57.494C68.3105 59.9826 70.328 62.0001 72.8166 62.0001Z" fill="#D43D3D"/>
<path d="M67.2326 14.5502C66.4114 16.7639 66.0806 19.1291 66.2628 21.4829H67.4481C69.3525 21.4829 70.8964 23.0269 70.8964 24.9312V26.6554H57.9653V24.9312C57.9653 23.0269 59.5094 21.4829 61.4137 21.4829C61.3257 18.2767 62.3826 15.1445 64.3947 12.6467L67.2326 14.5502Z" fill="#5F9548"/>
<path d="M55.1835 62.0001C52.7391 61.9984 50.5811 60.4039 49.8621 58.0673L46.4542 47.0002C44.9418 42.0845 44.1724 36.9706 44.1724 31.8277C44.1724 28.0187 47.2599 24.9312 51.0689 24.9312H52.7931C56.6021 24.9312 59.6896 28.0187 59.6896 31.8277V57.494C59.6896 59.9826 57.6721 62.0001 55.1835 62.0001Z" fill="#D43D3D"/>
<path d="M54.5171 30.1035V33.2483C54.5171 37.4677 54.8395 41.6808 55.481 45.851L56.9669 57.5062C57.3549 60.0297 59.5266 61.8927 62.0799 61.8923H65.2698C67.8232 61.8927 69.9944 60.0297 70.3824 57.5062L72.5153 45.851C73.158 41.6808 73.4814 37.4677 73.4826 33.2483V30.1035C73.4826 27.2471 71.1666 24.9312 68.3102 24.9312H59.6895C56.833 24.9312 54.5171 27.2471 54.5171 30.1035Z" fill="#E94F4F"/>
<path d="M56.6172 54.7586L56.9671 57.5078C57.3552 60.0312 59.5267 61.8943 62.08 61.8939H65.2699C67.8233 61.8943 69.9944 60.0312 70.3825 57.5078L72.5154 45.8526C73.1578 41.6845 73.481 37.474 73.4827 33.2571C70.8523 42.3353 64.8077 50.0412 56.6172 54.7586Z" fill="#E04646"/>
<path d="M57.1035 32.6897H58.8277V34.5216H57.1035V32.6897Z" fill="#F26666"/>
<path d="M58.1382 46.3357L57.6554 42.9597C57.3153 40.7591 57.1309 38.537 57.1035 36.3107L58.8277 36.2917C58.8521 38.4407 59.028 40.5853 59.3542 42.7097L59.8396 46.094L58.1382 46.3357Z" fill="#F26666"/>
<path d="M67.4483 13.7241C67.4483 14.6763 66.6763 15.4483 65.7242 15.4483C64.772 15.4483 64 14.6763 64 13.7241C64 12.772 64.772 12 65.7242 12C66.6763 12 67.4483 12.772 67.4483 13.7241Z" fill="#77AD50"/>
<path d="M117.817 62.0001C120.261 61.9984 122.419 60.4039 123.138 58.0673L126.546 47.0002C128.058 42.0845 128.828 36.9706 128.828 31.8277C128.828 28.0187 125.74 24.9312 121.931 24.9312H120.207C116.398 24.9312 113.311 28.0187 113.311 31.8277V57.494C113.311 59.9826 115.328 62.0001 117.817 62.0001Z" fill="#D43D3D"/>
<path d="M112.233 14.5502C111.411 16.7639 111.081 19.1291 111.263 21.4829H112.448C114.352 21.4829 115.896 23.0269 115.896 24.9312V26.6554H102.965V24.9312C102.965 23.0269 104.509 21.4829 106.414 21.4829C106.326 18.2767 107.383 15.1445 109.395 12.6467L112.233 14.5502Z" fill="#5F9548"/>
<path d="M100.184 62.0001C97.7391 61.9984 95.5811 60.4039 94.8621 58.0673L91.4542 47.0002C89.9418 42.0845 89.1724 36.9706 89.1724 31.8277C89.1724 28.0187 92.2599 24.9312 96.0689 24.9312H97.7931C101.602 24.9312 104.69 28.0187 104.69 31.8277V57.494C104.69 59.9826 102.672 62.0001 100.184 62.0001Z" fill="#D43D3D"/>
<path d="M99.5171 30.1035V33.2483C99.5171 37.4677 99.8395 41.6808 100.481 45.851L101.967 57.5062C102.355 60.0297 104.527 61.8927 107.08 61.8923H110.27C112.823 61.8927 114.994 60.0297 115.382 57.5062L117.515 45.851C118.158 41.6808 118.481 37.4677 118.483 33.2483V30.1035C118.483 27.2471 116.167 24.9312 113.31 24.9312H104.689C101.833 24.9312 99.5171 27.2471 99.5171 30.1035Z" fill="#E94F4F"/>
<path d="M101.617 54.7586L101.967 57.5078C102.355 60.0312 104.527 61.8943 107.08 61.8939H110.27C112.823 61.8943 114.994 60.0312 115.383 57.5078L117.515 45.8526C118.158 41.6845 118.481 37.474 118.483 33.2571C115.852 42.3353 109.808 50.0412 101.617 54.7586Z" fill="#E04646"/>
<path d="M102.104 32.6897H103.828V34.5216H102.104V32.6897Z" fill="#F26666"/>
<path d="M103.138 46.3357L102.655 42.9597C102.315 40.7591 102.131 38.537 102.104 36.3107L103.828 36.2917C103.852 38.4407 104.028 40.5853 104.354 42.7097L104.84 46.094L103.138 46.3357Z" fill="#F26666"/>
<path d="M112.448 13.7241C112.448 14.6763 111.676 15.4483 110.724 15.4483C109.772 15.4483 109 14.6763 109 13.7241C109 12.772 109.772 12 110.724 12C111.676 12 112.448 12.772 112.448 13.7241Z" fill="#77AD50"/>
<path d="M4.46875 14.625H38.4062V28.0312H32V20.0312H15.0938V35.25H31.375V40.5H15.0938V56.625H19.8438V62H4.46875V56.625H8.96875V20.0312H4.46875V14.625Z" fill="#F2F2F2"/>
<path d="M134.469 14.625H152.094C154.26 14.625 156.323 14.9062 158.281 15.4688C160.24 16.0312 162.062 16.8229 163.75 17.8438C165.438 18.8646 166.969 20.0938 168.344 21.5312C169.719 22.9479 170.885 24.5312 171.844 26.2812C172.823 28.0312 173.573 29.9167 174.094 31.9375C174.615 33.9375 174.875 36.0208 174.875 38.1875C174.875 40.3958 174.615 42.5104 174.094 44.5312C173.573 46.5521 172.823 48.4479 171.844 50.2188C170.885 51.9896 169.719 53.6042 168.344 55.0625C166.969 56.5 165.438 57.7396 163.75 58.7812C162.062 59.8021 160.24 60.5938 158.281 61.1562C156.323 61.7188 154.26 62 152.094 62H134.469V56.625H138.969V20.0312H134.469V14.625ZM145.094 20.0312V56.625H152.469C154.656 56.625 156.708 56.1458 158.625 55.1875C160.562 54.2292 162.25 52.9271 163.688 51.2812C165.125 49.6146 166.26 47.6667 167.094 45.4375C167.927 43.1875 168.344 40.7708 168.344 38.1875C168.344 35.6458 167.927 33.2708 167.094 31.0625C166.26 28.8542 165.125 26.9375 163.688 25.3125C162.25 23.6667 160.562 22.375 158.625 21.4375C156.708 20.5 154.656 20.0312 152.469 20.0312H145.094Z" fill="#F2F2F2"/>
</svg>
